<?xml version="1.0" encoding="UTF-8" standalone="no"?>
<svg
   xmlns:dc="http://purl.org/dc/elements/1.1/"
   xmlns:cc="http://creativecommons.org/ns#"
   xmlns:rdf="http://www.w3.org/1999/02/22-rdf-syntax-ns#"
   xmlns:svg="http://www.w3.org/2000/svg"
   xmlns="http://www.w3.org/2000/svg"
   xmlns:sodipodi="http://sodipodi.sourceforge.net/DTD/sodipodi-0.dtd"
   xmlns:inkscape="http://www.inkscape.org/namespaces/inkscape"
   width="500"
   height="340"
   viewBox="0 0 2461 1670"
   version="1.0"
   id="svg2"
   sodipodi:version="0.32"
   inkscape:version="0.46"
   sodipodi:docname="Lee Logo.svg"
   inkscape:output_extension="org.inkscape.output.svg.inkscape">
  <metadata
     id="metadata25">
    <rdf:RDF>
      <cc:Work
         rdf:about="">
        <dc:format>image/svg+xml</dc:format>
        <dc:type
           rdf:resource="http://purl.org/dc/dcmitype/StillImage" />
      </cc:Work>
    </rdf:RDF>
  </metadata>
  <defs
     id="defs23">
    <inkscape:perspective
       sodipodi:type="inkscape:persp3d"
       inkscape:vp_x="0 : 1043.75 : 1"
       inkscape:vp_y="0 : 1000 : 0"
       inkscape:vp_z="3076.25 : 1043.75 : 1"
       inkscape:persp3d-origin="1538.125 : 695.83333 : 1"
       id="perspective27" />
  </defs>
  <sodipodi:namedview
     inkscape:window-height="669"
     inkscape:window-width="640"
     inkscape:pageshadow="2"
     inkscape:pageopacity="0.0"
     guidetolerance="10.0"
     gridtolerance="10.0"
     objecttolerance="10.0"
     borderopacity="1.0"
     bordercolor="#666666"
     pagecolor="#ffffff"
     id="base"
     showgrid="false"
     inkscape:zoom="0.17683868"
     inkscape:cx="1538.125"
     inkscape:cy="1043.75"
     inkscape:window-x="23"
     inkscape:window-y="51"
     inkscape:current-layer="svg2" />
  <g
     id="#3e2d01ff">
    <path
       d="M 0,0 L 2461,0 L 2461,1670 L 0,1670 L 0,0 M 2045.52,317.76 C 2032.8,320.09 2021.11,326.86 2012.32,336.28 C 2000.01,348.4 1993.33,365.77 1993.98,383 C 1993.7,402.53 2003.31,421.5 2018.47,433.63 C 2032.04,445.08 2050.68,449.39 2068.09,446.79 C 2085.65,444.56 2101.26,433.72 2111.3,419.4 C 2121.82,404.76 2124.82,385.65 2121.46,368.14 C 2118.35,351.43 2107.72,336.71 2093.82,327.2 C 2079.91,317.53 2062.01,314.74 2045.52,317.76 M 313.74,367.71 C 299.63,383.48 295.99,405.51 295.25,425.95 C 294.27,440.81 296.79,456.02 303.44,469.41 C 312.23,487.44 327.86,502.01 346.45,509.55 C 351.54,511.64 356.43,515.19 358.58,520.43 C 360.77,525.33 359.8,530.8 360,535.98 C 359.81,562.32 360.39,588.64 360.25,614.98 C 360.25,758.99 360.26,902.99 360.25,1047 C 360.77,1077 360.39,1107.02 360.5,1137.03 C 360.35,1157.37 361.52,1178.12 356.21,1197.97 C 352.97,1210.12 347.67,1221.63 341.53,1232.57 C 332.56,1248.02 324.77,1264.73 323.55,1282.82 C 322.56,1296.03 323.12,1310.15 330.09,1321.82 C 336.36,1332.8 347.75,1339.79 359.57,1343.46 C 375.22,1348.28 391.76,1349.17 408.04,1349 C 520.68,1349 633.33,1349 745.98,1349 C 758.58,1349.16 771.27,1348.24 783.6,1345.47 C 797.14,1342.39 810.39,1336.37 820.17,1326.29 C 832.47,1314.03 839.17,1297.49 844.28,1281.2 C 851.29,1258.16 855.44,1234.41 860.48,1210.9 C 874.34,1145.1 887.24,1079.11 901.52,1013.4 C 903.59,1005.08 905.2,994.95 913.38,990.33 C 921.66,986.18 931.22,987.48 940.17,987.24 C 950.05,1070.89 977.07,1153.45 1024.61,1223.41 C 1046.11,1254.85 1071.89,1283.58 1102.15,1306.82 C 1133.51,1330.94 1170.02,1348.94 1209.05,1356.27 C 1229.8,1360.42 1251.09,1360.64 1272.15,1359.44 C 1297.75,1357.84 1323.23,1353.39 1347.61,1345.34 C 1379.62,1334.88 1409.54,1318.1 1435.17,1296.26 C 1466.59,1269.61 1491.57,1236 1510.84,1199.73 C 1519.18,1183.65 1524.11,1165.09 1520.78,1146.99 C 1517.59,1128.82 1506.22,1113.25 1492.81,1101.09 C 1482.91,1092.32 1472.16,1084.04 1459.63,1079.43 C 1450.56,1076.07 1440.36,1075.08 1431.1,1078.25 C 1419.98,1081.91 1411.39,1090.48 1404.35,1099.51 C 1395.14,1111.6 1386.67,1124.26 1377.23,1136.19 C 1365.76,1150.93 1352.89,1164.97 1336.96,1174.98 C 1320.91,1185.23 1301.98,1190.5 1283.02,1191.25 C 1260.46,1192.7 1237.78,1186.77 1218.16,1175.75 C 1190.25,1160.03 1168.34,1135.42 1151.74,1108.35 C 1129.21,1071.48 1115.68,1029.68 1108.44,987.25 C 1262.6,987.22 1416.75,987.29 1570.91,987.22 C 1579.72,1061.44 1601.76,1134.65 1639.73,1199.28 C 1658.21,1230.7 1680.52,1260.01 1706.93,1285.2 C 1731.88,1308.96 1760.59,1329.07 1792.4,1342.52 C 1821.24,1354.78 1852.62,1361.46 1884.01,1360.75 C 1937.17,1360.83 1991.02,1347.71 2036.16,1319.08 C 2078.91,1292.32 2112.57,1252.91 2137.13,1209.19 C 2145.69,1194.54 2152.52,1178.22 2152.77,1161.01 C 2153.16,1148.12 2149.45,1135.26 2142.73,1124.3 C 2134.53,1110.85 2122.8,1099.93 2110.11,1090.78 C 2100.58,1084.09 2089.85,1078.36 2078.08,1077.25 C 2067.97,1076.14 2057.66,1079.38 2049.64,1085.54 C 2039.32,1093.28 2032.21,1104.27 2024.81,1114.63 C 2014.71,1128.48 2004.69,1142.47 1992.86,1154.91 C 1980.97,1167.5 1966.79,1178.23 1950.57,1184.53 C 1919.51,1196.46 1883.46,1194.4 1853.92,1179.08 C 1824.04,1163.78 1800.67,1138.18 1783.19,1109.92 C 1760.24,1072.65 1746.65,1030.27 1739.3,987.3 C 1849.2,987.17 1959.1,987.29 2069,987.24 C 2085.06,986.79 2101.31,984.36 2116.14,977.92 C 2130.44,971.8 2143.12,961.46 2150.98,947.93 C 2158.83,934.72 2161.95,919.19 2162.01,903.95 C 2161.91,861.65 2157.82,819.27 2148.65,777.94 C 2135.49,718.14 2111.93,660.04 2075.56,610.51 C 2053.48,580.58 2026.56,553.95 1995.14,533.89 C 1960.19,511.4 1919.48,497.7 1877.91,495.52 C 1836.84,493.03 1795.25,501.98 1758.72,520.88 C 1725.34,537.9 1696.09,562.38 1671.79,590.77 C 1646.28,620.49 1626.04,654.48 1610.35,690.3 C 1591.86,732.7 1579.74,777.76 1573.09,823.5 C 1557.3,823.51 1541.5,823.5 1525.72,823.5 C 1520.02,780.29 1509.47,737.6 1492.93,697.23 C 1478.43,661.65 1459.23,627.87 1435,598 C 1410.98,568.52 1381.88,542.84 1348.34,524.71 C 1313.17,505.47 1273.16,495.02 1233.04,495.25 C 1194.32,495.09 1155.81,505.44 1121.87,523.93 C 1086.88,542.89 1056.72,569.98 1032.09,601.09 C 1009.92,629.04 992.05,660.28 978.03,693.05 C 960.27,734.66 948.58,778.75 942.15,823.5 C 924.4,823.66 906.64,823.17 888.9,823.79 C 857.31,825 825.52,835.56 801.49,856.51 C 774.22,879.8 757.94,913.53 749.98,948.01 C 735.19,1018.51 721.17,1089.18 706.66,1159.75 C 705.3,1165.9 704.65,1172.56 700.66,1177.72 C 696.58,1183.15 689.56,1185.33 682.99,1185.23 C 637.31,1185.29 591.63,1185.22 545.96,1185.26 C 540.79,1185.26 535.32,1184.97 530.82,1182.15 C 524.55,1178.53 521.67,1170.96 521.74,1164 C 521.76,954.32 521.74,744.64 521.75,534.96 C 521.79,529.83 521.23,524.37 523.67,519.66 C 526.18,514.59 531.18,511.4 536.27,509.34 C 550.92,503.18 563.72,492.73 572.62,479.57 C 582.51,465.13 587.36,447.47 586.75,430.02 C 586.25,410.55 583.81,389.96 572.56,373.49 C 564.44,361.07 550.42,353.61 536.06,351.1 C 523.85,348.71 511.37,350.31 499.05,349.56 C 453.35,349.33 407.64,349.76 361.96,349.3 C 344.45,349.35 325.78,354.26 313.74,367.71 z"
       id="path5"
       style="opacity:1;fill:#3e2d01" />
    <path
       d="M 2047.54,326.71 C 2064.96,323.26 2084.08,328.59 2096.44,341.54 C 2108.99,353.25 2115.09,371.04 2113.1,388.02 C 2111.67,406.15 2100.16,422.56 2084.59,431.55 C 2069.58,439.98 2050.52,440.38 2034.95,433.2 C 2018.02,425.04 2005.48,408.01 2003.53,389.21 C 2001.57,373.92 2005.72,357.7 2015.87,345.93 C 2023.9,336.25 2035.1,329.04 2047.54,326.71 M 2032.25,345.76 C 2032.25,369.67 2032.26,393.58 2032.24,417.49 C 2036.4,417.5 2040.57,417.5 2044.75,417.49 C 2044.75,408.08 2044.75,398.66 2044.74,389.25 C 2052.03,389.3 2059.45,388.85 2066.59,390.65 C 2070.67,391.7 2073.43,395.45 2074.52,399.36 C 2076.19,405.33 2075.66,411.61 2075.76,417.74 C 2079.49,417.75 2083.24,417.75 2086.99,417.75 C 2086.45,409.25 2088.83,399.81 2083.79,392.24 C 2081.28,387.58 2076.09,385.27 2071.17,384.15 C 2075.11,383.28 2079.31,382.28 2082.33,379.39 C 2088.53,373.66 2088.34,363.8 2085.35,356.5 C 2082.04,349.15 2073.49,346.55 2066.06,346.06 C 2054.81,345.4 2043.52,345.92 2032.25,345.76 z"
       id="path7"
       style="opacity:1;fill:#3e2d01" />
    <path
       d="M 2044.75,354.5 C 2052.45,354.65 2060.39,353.81 2067.87,356.16 C 2077.37,358.97 2077.39,374.67 2068.52,378.35 C 2060.98,381.45 2052.65,379.86 2044.75,380.25 C 2044.75,371.66 2044.74,363.08 2044.75,354.5 z"
       id="path9"
       style="opacity:1;fill:#3e2d01" />
    <path
       d="M 1816.64,673.59 C 1833.13,663.01 1853.14,657.58 1872.73,659.72 C 1888.73,661.28 1904.08,667.6 1917.03,677.04 C 1933.14,688.59 1945.85,704.33 1955.83,721.34 C 1974,752.51 1983.69,787.94 1988.53,823.5 C 1905.65,823.5 1822.78,823.51 1739.91,823.5 C 1744.69,785.06 1755.73,746.67 1777.01,713.99 C 1787.43,698.16 1800.52,683.76 1816.64,673.59 z"
       id="path11"
       style="opacity:1;fill:#3e2d01" />
    <path
       d="M 1188.78,671.8 C 1205.28,661.99 1224.97,657.59 1244.05,660.06 C 1261.55,662.19 1278.01,670.09 1291.57,681.22 C 1307.15,694.01 1319.35,710.49 1328.82,728.2 C 1344.51,757.79 1353.21,790.63 1357.63,823.7 C 1274.76,823.85 1191.88,823.68 1109,823.79 C 1113.8,785.54 1124.71,747.35 1145.71,714.71 C 1156.87,697.65 1171.08,682.18 1188.78,671.8 z"
       id="path13"
       style="opacity:1;fill:#3e2d01" />
  </g>
  <g
     id="#edede3ff">
    <path
       d="M 2045.52,317.76 C 2062.01,314.74 2079.91,317.53 2093.82,327.2 C 2107.72,336.71 2118.35,351.43 2121.46,368.14 C 2124.82,385.65 2121.82,404.76 2111.3,419.4 C 2101.26,433.72 2085.65,444.56 2068.09,446.79 C 2050.68,449.39 2032.04,445.08 2018.47,433.63 C 2003.31,421.5 1993.7,402.53 1993.98,383 C 1993.33,365.77 2000.01,348.4 2012.32,336.28 C 2021.11,326.86 2032.8,320.09 2045.52,317.76 M 2047.54,326.71 C 2035.1,329.04 2023.9,336.25 2015.87,345.93 C 2005.72,357.7 2001.57,373.92 2003.53,389.21 C 2005.48,408.01 2018.02,425.04 2034.95,433.2 C 2050.52,440.38 2069.58,439.98 2084.59,431.55 C 2100.16,422.56 2111.67,406.15 2113.1,388.02 C 2115.09,371.04 2108.99,353.25 2096.44,341.54 C 2084.08,328.59 2064.96,323.26 2047.54,326.71 z"
       id="path16"
       style="opacity:1;fill:#edede3" />
    <path
       d="M 2032.25,345.76 C 2043.52,345.92 2054.81,345.4 2066.06,346.06 C 2073.49,346.55 2082.04,349.15 2085.35,356.5 C 2088.34,363.8 2088.53,373.66 2082.33,379.39 C 2079.31,382.28 2075.11,383.28 2071.17,384.15 C 2076.09,385.27 2081.28,387.58 2083.79,392.24 C 2088.83,399.81 2086.45,409.25 2086.99,417.75 C 2083.24,417.75 2079.49,417.75 2075.76,417.74 C 2075.66,411.61 2076.19,405.33 2074.52,399.36 C 2073.43,395.45 2070.67,391.7 2066.59,390.65 C 2059.45,388.85 2052.03,389.3 2044.74,389.25 C 2044.75,398.66 2044.75,408.08 2044.75,417.49 C 2040.57,417.5 2036.4,417.5 2032.24,417.49 C 2032.26,393.58 2032.25,369.67 2032.25,345.76 M 2044.75,354.5 C 2044.74,363.08 2044.75,371.66 2044.75,380.25 C 2052.65,379.86 2060.98,381.45 2068.52,378.35 C 2077.39,374.67 2077.37,358.97 2067.87,356.16 C 2060.39,353.81 2052.45,354.65 2044.75,354.5 z"
       id="path18"
       style="opacity:1;fill:#edede3" />
    <path
       d="M 313.74,367.71 C 325.78,354.26 344.45,349.35 361.96,349.3 C 407.64,349.76 453.35,349.33 499.05,349.56 C 511.37,350.31 523.85,348.71 536.06,351.1 C 550.42,353.61 564.44,361.07 572.56,373.49 C 583.81,389.96 586.25,410.55 586.75,430.02 C 587.36,447.47 582.51,465.13 572.62,479.57 C 563.72,492.73 550.92,503.18 536.27,509.34 C 531.18,511.4 526.18,514.59 523.67,519.66 C 521.23,524.37 521.79,529.83 521.75,534.96 C 521.74,744.64 521.76,954.32 521.74,1164 C 521.67,1170.96 524.55,1178.53 530.82,1182.15 C 535.32,1184.97 540.79,1185.26 545.96,1185.26 C 591.63,1185.22 637.31,1185.29 682.99,1185.23 C 689.56,1185.33 696.58,1183.15 700.66,1177.72 C 704.65,1172.56 705.3,1165.9 706.66,1159.75 C 721.17,1089.18 735.19,1018.51 749.98,948.01 C 757.94,913.53 774.22,879.8 801.49,856.51 C 825.52,835.56 857.31,825 888.9,823.79 C 906.64,823.17 924.4,823.66 942.15,823.5 C 948.58,778.75 960.27,734.66 978.03,693.05 C 992.05,660.28 1009.92,629.04 1032.09,601.09 C 1056.72,569.98 1086.88,542.89 1121.87,523.93 C 1155.81,505.44 1194.32,495.09 1233.04,495.25 C 1273.16,495.02 1313.17,505.47 1348.34,524.71 C 1381.88,542.84 1410.98,568.52 1435,598 C 1459.23,627.87 1478.43,661.65 1492.93,697.23 C 1509.47,737.6 1520.02,780.29 1525.72,823.5 C 1541.5,823.5 1557.3,823.51 1573.09,823.5 C 1579.74,777.76 1591.86,732.7 1610.35,690.3 C 1626.04,654.48 1646.28,620.49 1671.79,590.77 C 1696.09,562.38 1725.34,537.9 1758.72,520.88 C 1795.25,501.98 1836.84,493.03 1877.91,495.52 C 1919.48,497.7 1960.19,511.4 1995.14,533.89 C 2026.56,553.95 2053.48,580.58 2075.56,610.51 C 2111.93,660.04 2135.49,718.14 2148.65,777.94 C 2157.82,819.27 2161.91,861.65 2162.01,903.95 C 2161.95,919.19 2158.83,934.72 2150.98,947.93 C 2143.12,961.46 2130.44,971.8 2116.14,977.92 C 2101.31,984.36 2085.06,986.79 2069,987.24 C 1959.1,987.29 1849.2,987.17 1739.3,987.3 C 1746.65,1030.27 1760.24,1072.65 1783.19,1109.92 C 1800.67,1138.18 1824.04,1163.78 1853.92,1179.08 C 1883.46,1194.4 1919.51,1196.46 1950.57,1184.53 C 1966.79,1178.23 1980.97,1167.5 1992.86,1154.91 C 2004.69,1142.47 2014.71,1128.48 2024.81,1114.63 C 2032.21,1104.27 2039.32,1093.28 2049.64,1085.54 C 2057.66,1079.38 2067.97,1076.14 2078.08,1077.25 C 2089.85,1078.36 2100.58,1084.09 2110.11,1090.78 C 2122.8,1099.93 2134.53,1110.85 2142.73,1124.3 C 2149.45,1135.26 2153.16,1148.12 2152.77,1161.01 C 2152.52,1178.22 2145.69,1194.54 2137.13,1209.19 C 2112.57,1252.91 2078.91,1292.32 2036.16,1319.08 C 1991.02,1347.71 1937.17,1360.83 1884.01,1360.75 C 1852.62,1361.46 1821.24,1354.78 1792.4,1342.52 C 1760.59,1329.07 1731.88,1308.96 1706.93,1285.2 C 1680.52,1260.01 1658.21,1230.7 1639.73,1199.28 C 1601.76,1134.65 1579.72,1061.44 1570.91,987.22 C 1416.75,987.29 1262.6,987.22 1108.44,987.25 C 1115.68,1029.68 1129.21,1071.48 1151.74,1108.35 C 1168.34,1135.42 1190.25,1160.03 1218.16,1175.75 C 1237.78,1186.77 1260.46,1192.7 1283.02,1191.25 C 1301.98,1190.5 1320.91,1185.23 1336.96,1174.98 C 1352.89,1164.97 1365.76,1150.93 1377.23,1136.19 C 1386.67,1124.26 1395.14,1111.6 1404.35,1099.51 C 1411.39,1090.48 1419.98,1081.91 1431.1,1078.25 C 1440.36,1075.08 1450.56,1076.07 1459.63,1079.43 C 1472.16,1084.04 1482.91,1092.32 1492.81,1101.09 C 1506.22,1113.25 1517.59,1128.82 1520.78,1146.99 C 1524.11,1165.09 1519.18,1183.65 1510.84,1199.73 C 1491.57,1236 1466.59,1269.61 1435.17,1296.26 C 1409.54,1318.1 1379.62,1334.88 1347.61,1345.34 C 1323.23,1353.39 1297.75,1357.84 1272.15,1359.44 C 1251.09,1360.64 1229.8,1360.42 1209.05,1356.27 C 1170.02,1348.94 1133.51,1330.94 1102.15,1306.82 C 1071.89,1283.58 1046.11,1254.85 1024.61,1223.41 C 977.07,1153.45 950.05,1070.89 940.17,987.24 C 931.22,987.48 921.66,986.18 913.38,990.33 C 905.2,994.95 903.59,1005.08 901.52,1013.4 C 887.24,1079.11 874.34,1145.1 860.48,1210.9 C 855.44,1234.41 851.29,1258.16 844.28,1281.2 C 839.17,1297.49 832.47,1314.03 820.17,1326.29 C 810.39,1336.37 797.14,1342.39 783.6,1345.47 C 771.27,1348.24 758.58,1349.16 745.98,1349 C 633.33,1349 520.68,1349 408.04,1349 C 391.76,1349.17 375.22,1348.28 359.57,1343.46 C 347.75,1339.79 336.36,1332.8 330.09,1321.82 C 323.12,1310.15 322.56,1296.03 323.55,1282.82 C 324.77,1264.73 332.56,1248.02 341.53,1232.57 C 347.67,1221.63 352.97,1210.12 356.21,1197.97 C 361.52,1178.12 360.35,1157.37 360.5,1137.03 C 360.39,1107.02 360.77,1077 360.25,1047 C 360.26,902.99 360.25,758.99 360.25,614.98 C 360.39,588.64 359.81,562.32 360,535.98 C 359.8,530.8 360.77,525.33 358.58,520.43 C 356.43,515.19 351.54,511.64 346.45,509.55 C 327.86,502.01 312.23,487.44 303.44,469.41 C 296.79,456.02 294.27,440.81 295.25,425.95 C 295.99,405.51 299.63,383.48 313.74,367.71 M 1816.64,673.59 C 1800.52,683.76 1787.43,698.16 1777.01,713.99 C 1755.73,746.67 1744.69,785.06 1739.91,823.5 C 1822.78,823.51 1905.65,823.5 1988.53,823.5 C 1983.69,787.94 1974,752.51 1955.83,721.34 C 1945.85,704.33 1933.14,688.59 1917.03,677.04 C 1904.08,667.6 1888.73,661.28 1872.73,659.72 C 1853.14,657.58 1833.13,663.01 1816.64,673.59 M 1188.78,671.8 C 1171.08,682.18 1156.87,697.65 1145.71,714.71 C 1124.71,747.35 1113.8,785.54 1109,823.79 C 1191.88,823.68 1274.76,823.85 1357.63,823.7 C 1353.21,790.63 1344.51,757.79 1328.82,728.2 C 1319.35,710.49 1307.15,694.01 1291.57,681.22 C 1278.01,670.09 1261.55,662.19 1244.05,660.06 C 1224.97,657.59 1205.28,661.99 1188.78,671.8 z"
       id="path20"
       style="opacity:1;fill:#edede3" />
  </g>
</svg>
