<?xml version="1.0" encoding="utf-8"?>

<!DOCTYPE svg PUBLIC "-//W3C//DTD SVG 1.1//EN" "http://www.w3.org/Graphics/SVG/1.1/DTD/svg11.dtd">
<svg version="1.1" xmlns="http://www.w3.org/2000/svg" xmlns:xlink="http://www.w3.org/1999/xlink" x="0px" y="0px"
	 viewBox="0 0 150 43.6" style="enable-background:new 0 0 150 43.6;" xml:space="preserve">
<style type="text/css">
	.st0{display:none;}
	.st1{display:inline;fill:#2A3692;}
	.st2{fill:#010101;}
</style>
<g id="Layer_2" class="st0">
	<rect x="-6.8" y="0.9" class="st1" width="167" height="46"/>
</g>
<g id="Layer_1">
	<g>
		<polygon class="st2" points="6.7,0 12.4,13.8 12.8,13.8 19.1,0.4 19.5,0.4 26.2,13.6 26.6,13.6 32.3,0 38.6,0 38.6,0.2 27.1,30.2 
			26.8,30.2 19.7,14.5 19.3,14.5 12.4,30.2 12,30.2 0,0 		"/>
		<polygon class="st2" points="107.9,0 114.1,0 114.1,28.9 107.9,28.9 		"/>
		<path class="st2" d="M47.1,5.7h2.3v5.3c-1.3,0-6.3,1.2-6.3,4v13.6h-5.9V6h5.9v1.3C45.2,6.8,45.5,5.7,47.1,5.7L47.1,5.7z"/>
		<path class="st2" d="M137.8,6h5.9v1.7c0.5-0.2,1.2-1.5,4.2-1.7c0.4,0,2.1,0,2.1,0v5.6c-2.9-0.2-6.5,1.1-6.5,3.8v13.6h-5.7L137.8,6
			L137.8,6z"/>
		<path class="st2" d="M126.6,5.6c5.1,0,8.4,3.5,10.3,6.6l-14.6,10.2c1.3,1.1,2.5,2,4.1,2.1c2.3,0,4.2-0.7,7-3.4
			c0.1,0,2.3,4.5,2.3,4.5c0,0.2-4.3,3.9-9.2,3.9c-9.1,0-11.6-9.1-11.6-11.2v-2.7C114.9,12.6,118.2,5.6,126.6,5.6L126.6,5.6z
			 M120.3,16.4l0.1,1.7l8.6-5.9c-0.4-0.6-1.7-1.3-3.3-1.3C121.2,10.9,120.3,15.8,120.3,16.4L120.3,16.4z"/>
		<path class="st2" d="M51.7,6h13v22.8h-5.2v-1.4c-0.9,0.3-2.4,1.5-5,1.4c-4.6-0.1-7.5-3.7-7.6-7.9c-0.1-3.6,2.6-7.9,7.4-7.9
			c3.8,0,4.4,0.8,5.1,1.1v-3.2h-9C51,8.5,51.2,7.9,51.7,6L51.7,6z M52.3,21.1c0,1,1.5,2.6,3.1,2.6c2.4,0,3.3-1.8,3.3-2.3
			c0-1.6-1-3.2-3.2-3.1C52.5,18.2,52.3,20.1,52.3,21.1L52.3,21.1z"/>
		<path class="st2" d="M95.3,5.5c0.6,0,8.5,0,11.9,0v0.6c-0.7,2.3-1.2,3.9-1.3,4.9h-1.9c0.1,0.4,0.8,3,0.8,3.6v1.9
			c0,2.6-2,5-2.2,5.2c0,0.1,3.7,3.3,4.4,8.6c0.1,0.6,0,2.9-0.2,3.6c-1.6,5.8-5.4,8.3-8.8,9.2c-1.2,0.4-4,0.4-4.9,0.3
			c-0.4-0.1-3.3-0.2-7.4-4.3l4.2-4.3c1.3,2,3.4,2.8,5.2,2.8c3.5,0,6.1-3,6.1-6c0-3.7-2.5-6.6-6.7-6.5c-3,0-4.2,2.6-4.6,3l-4.7-3.7
			L85,24.3v4.4h-6.1V14.9c0-0.2-0.2-3-3.1-3c-2.7,0-4,2-4,4.3v12.6h-5.9V6h5.9v1.5c1.6-0.8,2.6-1.6,5.7-1.6c4.1,0,7.6,3.5,7.5,6.9
			v11.4c0.2-0.1,2.1-2,2.6-2.5c0,0-2.1-2.8-2.1-5v-2.1C85.4,11.7,88.7,5.5,95.3,5.5L95.3,5.5z M91.5,15.3c0,2.7,1.9,4,3.8,4
			c1.6,0,3.8-1.6,3.8-3.8c0-1.2-1.2-3.8-3.8-3.8C93.2,11.7,91.5,13.3,91.5,15.3L91.5,15.3z"/>
		<path class="st2" d="M116.5,0.8c-0.3,0.3-0.5,0.6-0.5,1c0,0.4,0.2,0.8,0.5,1c0.3,0.3,0.7,0.4,1.1,0.4c0.4,0,0.8-0.1,1.1-0.4
			c0.3-0.3,0.5-0.6,0.5-1s-0.2-0.8-0.5-1c-0.3-0.3-0.7-0.4-1.1-0.4C117.2,0.4,116.8,0.5,116.5,0.8L116.5,0.8z M118.9,3.1
			c-0.4,0.3-0.8,0.5-1.3,0.5c-0.5,0-1-0.2-1.3-0.5s-0.5-0.7-0.5-1.2s0.2-0.9,0.5-1.2c0.4-0.3,0.8-0.5,1.3-0.5c0.5,0,1,0.2,1.3,0.5
			c0.4,0.3,0.5,0.7,0.5,1.2C119.5,2.3,119.3,2.7,118.9,3.1L118.9,3.1z M118,1.2c-0.1,0-0.2-0.1-0.4-0.1h-0.3v0.7h0.3
			c0.2,0,0.3,0,0.3,0c0.1,0,0.2-0.2,0.2-0.3C118.1,1.4,118,1.3,118,1.2L118,1.2z M117.6,0.9c0.3,0,0.4,0,0.6,0.1
			c0.2,0.1,0.3,0.2,0.3,0.5c0,0.2-0.1,0.3-0.2,0.4c-0.1,0-0.2,0.1-0.3,0.1c0.2,0,0.3,0.1,0.4,0.2c0.1,0.1,0.1,0.2,0.1,0.3v0.1
			c0,0,0,0.1,0,0.1c0,0,0,0.1,0,0.1l0,0h-0.3c0,0,0,0,0,0c0,0,0,0,0,0l0-0.1V2.6c0-0.2-0.1-0.4-0.2-0.4c-0.1,0-0.2-0.1-0.4-0.1h-0.3
			v0.7h-0.4V0.9L117.6,0.9L117.6,0.9z"/>
	</g>
</g>
</svg>
